<?xml version="1.0" standalone="no"?>
<!DOCTYPE svg PUBLIC "-//W3C//DTD SVG 20010904//EN"
 "http://www.w3.org/TR/2001/REC-SVG-20010904/DTD/svg10.dtd">
<svg version="1.0" xmlns="http://www.w3.org/2000/svg"
 width="1024.000000pt" height="1024.000000pt" viewBox="0 0 1024.000000 1024.000000"
 preserveAspectRatio="xMidYMid meet">

<g transform="translate(0.000000,1024.000000) scale(0.100000,-0.100000)"
fill="#000000" stroke="none">
<path d="M3967 7595 l-3967 -2645 0 -2475 0 -2475 5120 0 5120 0 0 5120 0
5120 -1153 0 -1152 0 -3968 -2645z m2545 198 c565 -763 911 -1430 957 -1847
23 -199 -32 -446 -139 -634 -29 -49 -51 -66 -388 -291 -400 -267 -370 -253
-567 -252 -553 2 -1009 412 -1075 966 -45 377 158 902 612 1583 60 90 145 214
190 275 82 112 278 367 284 367 1 0 58 -75 126 -167z m-1478 -436 c201 -269
367 -504 373 -528 3 -9 -9 -43 -26 -77 -98 -193 -218 -543 -252 -732 -17 -92
-17 -331 0 -420 86 -463 399 -832 824 -971 193 -63 387 -74 598 -34 l35 7 23
-97 c77 -339 65 -648 -40 -970 -42 -127 -166 -373 -246 -485 -87 -122 -301
-336 -423 -423 -112 -80 -358 -204 -485 -246 -372 -121 -759 -121 -1140 1
-131 42 -367 161 -484 245 -498 358 -782 935 -758 1543 9 219 51 424 146 700
216 631 691 1455 1330 2305 251 334 328 428 343 419 5 -3 87 -110 182 -237z"/>
<path d="M3735 4441 l-60 -6 -18 -90 c-28 -132 -27 -369 1 -490 58 -254 178
-465 359 -635 307 -287 726 -393 1136 -289 336 85 645 344 793 663 19 41 34
77 34 79 0 3 -55 -15 -122 -38 -178 -62 -269 -79 -423 -79 -105 0 -145 4 -210
23 -109 31 -191 71 -284 142 -92 69 -147 127 -244 259 -171 231 -341 358 -569
424 -80 23 -259 48 -312 44 -11 -1 -48 -4 -81 -7z"/>
</g>
</svg>
