<?xml version="1.0" encoding="iso-8859-1"?>
<!-- Generator: Adobe Illustrator 19.0.0, SVG Export Plug-In . SVG Version: 6.00 Build 0)  -->
<svg xmlns="http://www.w3.org/2000/svg" xmlns:xlink="http://www.w3.org/1999/xlink" version="1.1" id="Layer_1" x="0px" y="0px" viewBox="0 0 512 512" style="enable-background:new 0 0 512 512;" xml:space="preserve" width="512px" height="512px">
<g>
	<g>
		<path d="M129.296,151.085h15.673c0-48.47,39.721-87.902,88.545-87.902V47.509C176.048,47.509,129.296,93.973,129.296,151.085z" fill="#000246"/>
	</g>
</g>
<g>
	<g>
		<path d="M415.539,143.248h-1.94c-3.741-32.209-30.233-57.785-63.01-60.214c-24.295-41.343-68.743-66.838-117.075-66.838    c-72.109,0-131.249,56.304-135.338,127.052h-1.715C43.272,143.248,0,186.394,0,239.428s43.272,96.179,96.461,96.18h54.984v-15.673    H96.461c-44.546,0-80.787-36.115-80.787-80.506s36.241-80.506,80.787-80.506h17.161v-7.837    c0-65.736,53.783-119.216,119.892-119.216c44.088,0,84.52,23.971,105.516,62.558l2.208,4.058l4.62,0.033    c28.96,0.208,52.521,23.788,52.521,52.565v7.837h17.161c44.546,0,80.787,36.115,80.787,80.506    c0,44.391-36.24,80.506-80.787,80.506H219.406v15.674h196.134c53.188,0,96.461-43.145,96.461-96.179    C512,186.394,468.728,143.248,415.539,143.248z" fill="#000246"/>
	</g>
</g>
<g>
	<g>
		<polygon points="143.608,265.117 143.608,377.283 78.256,377.283 78.256,392.957 159.281,392.957 159.281,265.117   " fill="#000246"/>
	</g>
</g>
<g>
	<g>
		<polygon points="368.393,402.349 368.393,299.039 352.72,299.039 352.72,418.023 433.744,418.023 433.744,402.349   " fill="#000246"/>
	</g>
</g>
<g>
	<g>
		<rect x="352.716" y="265.112" width="15.673" height="15.657" fill="#000246"/>
	</g>
</g>
<g>
	<g>
		<path d="M54.223,353.276c-17.573,0-31.869,14.286-31.869,31.844s14.296,31.843,31.869,31.843s31.869-14.284,31.869-31.843    S71.796,353.276,54.223,353.276z M54.223,401.291c-8.931,0-16.196-7.253-16.196-16.17s7.265-16.171,16.196-16.171    s16.196,7.255,16.196,16.171S63.154,401.291,54.223,401.291z" fill="#000246"/>
	</g>
</g>
<g>
	<g>
		<path d="M457.777,378.343c-17.572,0-31.869,14.286-31.869,31.844s14.297,31.843,31.869,31.843    c17.573,0,31.869-14.284,31.869-31.843C489.646,392.628,475.349,378.343,457.777,378.343z M457.777,426.357    c-8.931,0-16.196-7.253-16.196-16.17s7.265-16.171,16.196-16.171s16.196,7.255,16.196,16.171S466.708,426.357,457.777,426.357z" fill="#000246"/>
	</g>
</g>
<g>
	<g>
		<rect x="211.571" y="265.112" width="15.673" height="122.619" fill="#000246"/>
	</g>
</g>
<g>
	<g>
		<rect x="284.756" y="410.227" width="15.674" height="29.725" fill="#000246"/>
	</g>
</g>
<g>
	<g>
		<rect x="284.756" y="265.112" width="15.674" height="92.4" fill="#000246"/>
	</g>
</g>
<g>
	<g>
		<path d="M292.594,432.118c-17.572,0-31.869,14.285-31.869,31.843s14.297,31.843,31.869,31.843    c17.573,0,31.869-14.285,31.869-31.843S310.166,432.118,292.594,432.118z M292.594,480.131c-8.931,0-16.196-7.254-16.196-16.17    s7.265-16.17,16.196-16.17s16.196,7.254,16.196,16.17S301.525,480.131,292.594,480.131z" fill="#000246"/>
	</g>
</g>
<g>
	<g>
		<path d="M219.406,379.895c-17.573,0-31.869,14.286-31.869,31.844s14.296,31.843,31.869,31.843    c17.573,0,31.869-14.284,31.869-31.843C251.275,394.179,236.979,379.895,219.406,379.895z M219.406,427.91    c-8.931,0-16.196-7.253-16.196-16.17c0-8.917,7.265-16.171,16.196-16.171s16.196,7.255,16.196,16.171    S228.336,427.91,219.406,427.91z" fill="#000246"/>
	</g>
</g>
<g>
	<g>
		<rect x="284.756" y="375.787" width="15.674" height="15.657" fill="#000246"/>
	</g>
</g>
<g>
	<g>
		<rect x="177.34" y="319.937" width="15.673" height="15.673" fill="#000246"/>
	</g>
</g>
<g>
</g>
<g>
</g>
<g>
</g>
<g>
</g>
<g>
</g>
<g>
</g>
<g>
</g>
<g>
</g>
<g>
</g>
<g>
</g>
<g>
</g>
<g>
</g>
<g>
</g>
<g>
</g>
<g>
</g>
</svg>
